HIERARCHY
ROOT pelvis
{
  OFFSET 0 0 0
  CHANNELS 6 Xposition Yposition Zposition Zrotation Xrotation Yrotation
  JOINT spine_01
  {
    OFFSET 10.8089 -0.851415 0
    CHANNELS 3 Zrotation Xrotation Yrotation
    JOINT spine_02
    {
      OFFSET 18.8753 3.80116 0
      CHANNELS 3 Zrotation Xrotation Yrotation
      JOINT spine_03
      {
        OFFSET 13.4073 0.420477 0
        CHANNELS 3 Zrotation Xrotation Yrotation
        JOINT clavicle_l
        {
          OFFSET 11.8837 -2.73209 -3.78198
          CHANNELS 3 Zrotation Xrotation Yrotation
          JOINT upperarm_l
          {
            OFFSET 15.7849 0 0
            CHANNELS 3 Zrotation Xrotation Yrotation
            JOINT lowerarm_l
            {
              OFFSET 30.3399 0 0
              CHANNELS 3 Zrotation Xrotation Yrotation
              JOINT hand_l
              {
                OFFSET 26.9751 0 0
                CHANNELS 3 Zrotation Xrotation Yrotation
                End Site
                {
                  OFFSET 0 0 0
                }
              }
            }
          }
        }
        JOINT clavicle_r
        {
          OFFSET 11.8838 -2.7321 3.782
          CHANNELS 3 Zrotation Xrotation Yrotation
          JOINT upperarm_r
          {
            OFFSET -15.7848 0 0
            CHANNELS 3 Zrotation Xrotation Yrotation
            JOINT lowerarm_r
            {
              OFFSET -30.34 0 0
              CHANNELS 3 Zrotation Xrotation Yrotation
              JOINT hand_r
              {
                OFFSET -26.9752 2.55532e-005 0
                CHANNELS 3 Zrotation Xrotation Yrotation
                End Site
                {
                  OFFSET 0 0 0
                }
              }
            }
          }
        }
        JOINT neck_01
        {
          OFFSET 16.5588 -0.355317 0
          CHANNELS 3 Zrotation Xrotation Yrotation
          JOINT head
          {
            OFFSET 9.28362 0.364158 0
            CHANNELS 3 Zrotation Xrotation Yrotation
            End Site
            {
              OFFSET 0 0 0
            }
          }
        }
      }
    }
  }
  JOINT thigh_l
  {
    OFFSET -1.44882 -0.531424 -9.00581
    CHANNELS 3 Zrotation Xrotation Yrotation
    JOINT calf_l
    {
      OFFSET -42.572 0 0
      CHANNELS 3 Zrotation Xrotation Yrotation
      JOINT foot_l
      {
        OFFSET -40.1967 0 0
        CHANNELS 3 Zrotation Xrotation Yrotation
        JOINT ball_l
        {
          OFFSET -10.4538 -16.5779 0.0801573
          CHANNELS 3 Zrotation Xrotation Yrotation
          End Site
          {
            OFFSET 0 0 0
          }
        }
      }
    }
  }
  JOINT thigh_r
  {
    OFFSET -1.44865 -0.531428 9.0058
    CHANNELS 3 Zrotation Xrotation Yrotation
    JOINT calf_r
    {
      OFFSET 42.5723 0 0
      CHANNELS 3 Zrotation Xrotation Yrotation
      JOINT foot_r
      {
        OFFSET 40.1968 0 -1.14441e-005
        CHANNELS 3 Zrotation Xrotation Yrotation
        JOINT ball_r
        {
          OFFSET 10.4538 16.5778 -0.0801582
          CHANNELS 3 Zrotation Xrotation Yrotation
          End Site
          {
            OFFSET 0 0 0
          }
        }
      }
    }
  }
}
MOTION
Frames:	13
Frame Time:	0.0333333
0.431308 82.0601 -0.0182682 -92.9291 -46.26 176.052 -23.1564 3.99548 0.981536 12.9942 0.615462 0.50164 1.70577 0.621804 0.480994 -12.0252 29.187 99.3949 -47.2444 -26.5369 51.0119 -125.538 -8.63528 1.14735 -32.6515 -59.4136 -29.1723 -179.781 22.6121 79.9277 -69.7599 -30.4618 56.5343 -112.507 -8.36658 1.30816 -104.074 -72.1225 -83.4196 -29.2474 0.623759 5.4408 15.8299 8.4688 10.1201 38.6203 15.9831 -22.0183 -53.5222 -11.5529 -10.2712 7.86664 -0.0177089 14.4199 -91.8836 0.00394553 0.00895438 -162.049 19.7242 -21.5428 -55.1177 -0.609106 -5.06869 35.4905 4.34104 15.0117 -91.8836 0.00394682 0.00895635 
0.693974 81.6283 0.794041 -93.124 -45.591 175.809 -23.79 3.94075 0.921396 13.1016 0.615463 0.486661 1.81321 0.621805 0.468212 -12.126 29.2125 99.52 -47.2365 -25.6648 51.6735 -124.801 -8.60644 1.16762 -30.5445 -59.2264 -27.1758 -179.712 22.6621 79.8518 -69.772 -29.8498 57.1371 -112.012 -8.3555 1.30812 -103.066 -72.1619 -82.2156 -29.1451 0.623836 5.36601 15.8976 8.52979 10.4888 39.4984 15.5935 -21.9623 -56.3771 -11.3005 -10.411 7.11194 0.0710733 14.0592 -91.8836 0.00394553 0.00895438 -161.547 19.6685 -22.5035 -55.9039 -1.49805 -5.57649 35.8108 4.50948 15.3922 -91.8836 0.00394682 0.00895635 
1.00515 81.1507 1.70763 -93.1521 -44.7334 175.663 -24.3625 3.96337 0.717981 13.2287 0.616824 0.524288 1.93983 0.622896 0.507803 -12.2464 29.2224 99.6579 -46.8452 -24.8668 52.3793 -124.788 -8.62786 1.15256 -29.6555 -59.2362 -25.8824 -179.603 22.6386 79.7294 -70.0322 -29.5285 57.4042 -111.566 -8.34573 1.30809 -102.492 -72.0971 -81.4677 -29.0541 0.637325 5.42038 15.8205 8.76101 11.0595 40.9423 15.1095 -22.3058 -59.6774 -11.055 -10.4644 4.96273 -1.25006 14.4162 -91.8836 0.00394553 0.00895438 -160.701 19.7321 -23.721 -56.7974 -2.81106 -6.20923 36.1466 4.62766 15.6713 -91.8836 0.00394682 0.00895635 
1.44323 80.4546 2.86604 -92.9976 -43.7471 175.584 -24.8613 4.0422 0.362366 13.3973 0.627265 0.613608 2.10753 0.633684 0.599097 -12.3934 29.2184 99.8169 -46.0218 -24.0669 53.1592 -125.471 -8.65931 1.13001 -30.416 -59.4863 -25.4902 -179.393 22.5483 79.4908 -70.7335 -29.4264 57.2396 -111.041 -8.33389 1.31043 -102.347 -71.9458 -81.1855 -28.9341 0.681233 5.64568 15.534 9.2677 11.9604 43.1816 14.1474 -23.2234 -64.0193 -10.7283 -10.5797 2.26802 -4.2512 17.8723 -91.8836 0.00394553 0.00895438 -159.317 19.7696 -25.4554 -58.1484 -4.64309 -6.97959 36.6515 4.79544 15.9425 -91.8836 0.00394682 0.00895635 
2.00539 79.6603 4.30816 -92.6377 -42.6357 175.526 -25.4094 4.10358 0.0580231 13.6439 0.633346 0.686127 2.35329 0.639916 0.674109 -12.5414 29.2037 99.9708 -45.1133 -23.3543 53.7748 -126.141 -8.64295 1.14178 -32.4769 -59.7478 -25.9346 -179.066 22.4563 79.1163 -71.945 -29.2143 56.6895 -110.479 -8.32106 1.31536 -102 -71.8945 -80.6884 -28.7012 0.76063 5.99282 15.2773 10.0474 13.1562 45.644 13.0912 -24.1778 -68.7663 -10.2114 -10.7955 0.858094 -8.55193 19.848 -91.8836 0.00394553 0.00895438 -157.569 19.6981 -27.6458 -59.4414 -6.11462 -7.88518 37.0336 4.44684 16.764 -91.8836 0.00394682 0.00895635 
2.67923 78.8308 6.07037 -92.1087 -41.2345 175.455 -25.923 4.00481 -0.0975719 13.8721 0.615637 0.709846 2.58148 0.621515 0.700207 -12.5628 29.2658 100.025 -44.1011 -23.1342 53.647 -126.24 -8.65184 1.13529 -33.6329 -59.8771 -25.8503 -178.454 22.403 78.4097 -73.715 -28.6856 56.147 -109.86 -8.30696 1.3206 -101.223 -71.9558 -79.7536 -28.1858 0.950207 6.54404 15.1217 11.3937 14.6422 47.7459 12.1189 -25.3841 -72.5189 -9.66891 -10.924 0.142295 -12.7948 20.4249 -91.8836 0.00394553 0.00895438 -155.6 19.3067 -30.1126 -60.2547 -6.21547 -8.94912 37.0675 2.93411 18.8021 -91.8836 0.00394682 0.00895635 
3.39218 78.0977 8.13463 -91.4918 -39.5675 175.446 -26.3211 3.56897 -0.0489889 14.03 0.543478 0.624484 2.74079 0.547176 0.617036 -12.3185 29.4677 99.8474 -42.6662 -23.8879 52.6155 -125.703 -8.64823 1.13799 -33.1611 -60.0463 -25.1271 -177.757 22.4921 77.5807 -75.882 -27.8157 55.6925 -109.164 -8.29096 1.32683 -99.8788 -71.9854 -78.3074 -27.3673 1.299 7.24653 15.0025 13.4006 16.2624 49.0501 11.514 -26.9448 -74.2888 -9.40146 -11.0733 0.521609 -14.4221 19.0902 -91.8836 0.00394553 0.00895438 -153.934 18.6661 -32.3736 -60.2637 -6.54205 -10.2357 36.6878 1.71833 21.0802 -91.8836 0.00394682 0.00895635 
4.03252 77.5905 10.4916 -90.8043 -37.9636 175.723 -26.3292 2.60307 0.155904 14.0963 0.375336 0.348121 2.80967 0.374396 0.342937 -11.8036 29.7838 99.3915 -40.8343 -25.8687 50.702 -124.763 -8.63212 1.14957 -32.092 -60.7214 -24.9715 -177.478 22.914 77.2237 -77.9985 -26.3266 55.1963 -108.539 -8.27661 1.33057 -98.1844 -71.9593 -76.7187 -26.4341 1.78136 7.90177 14.759 15.8473 17.8115 49.5164 11.4171 -28.8461 -73.2324 -9.54883 -11.3076 1.84995 -11.9206 16.3579 -91.8836 0.00394553 0.00895438 -153.32 18.1521 -34.1062 -58.8173 -7.70428 -11.5113 35.722 1.48515 23.2852 -91.8836 0.00394682 0.00895635 
4.50888 77.3643 13.1915 -89.9747 -37.22 176.457 -25.5072 1.07496 0.415155 14.0341 0.100692 -0.137338 2.74815 0.092128 -0.138672 -11.1699 30.086 98.7528 -39.416 -28.9245 47.941 -123.768 -8.60741 1.16665 -31.9324 -61.9369 -26.3066 -177.864 23.8368 77.7151 -79.29 -23.544 54.7824 -108.38 -8.2728 1.33158 -96.3376 -71.997 -75.2679 -25.6641 2.27585 8.29084 14.2833 18.1503 19.0359 49.6287 11.8119 -30.6777 -68.8757 -10.1868 -11.3791 3.08012 -5.78377 12.3723 -91.8836 0.00394553 0.00895438 -154.011 18.1732 -35.1904 -55.9797 -8.90467 -12.4173 33.6158 1.94277 25.5726 -91.8836 0.00394682 0.00895635 
4.83243 77.2969 16.4498 -89.0061 -38.0514 177.741 -23.6159 -0.700682 0.388948 13.8083 -0.223927 -0.704711 2.51856 -0.244024 -0.697749 -10.6035 30.218 98.1144 -39.6294 -32.3211 44.5268 -123.016 -8.57698 1.18683 -33.4929 -62.7266 -29.2749 -178.634 25.2995 78.8136 -78.8174 -19.0287 54.8826 -109.282 -8.2932 1.32553 -93.9735 -72.3242 -73.7494 -25.2442 2.61559 8.30014 13.6128 19.5416 19.6658 49.8796 12.3988 -31.8588 -61.1955 -9.31968 -10.7701 2.97646 -0.819107 7.60724 -91.8836 0.00394553 0.00895438 -155.529 18.5666 -35.7698 -53.3798 -9.83438 -12.9783 29.2525 2.63742 26.6085 -91.8836 0.00394682 0.00895635 
5.02769 77.2172 20.3851 -88.1736 -40.8154 179.462 -21.078 -2.24133 -0.072637 13.5187 -0.515168 -1.24393 2.22264 -0.552292 -1.2245 -10.146 30.163 97.582 -42.035 -34.8122 41.0436 -122.73 -8.58004 1.19205 -36.5432 -62.58 -33.4627 -179.419 27.1932 80.1201 -76.1164 -13.0589 55.3553 -111.826 -8.35127 1.30357 -90.5782 -73.0934 -71.7924 -25.1685 2.69263 7.90538 12.8652 19.4197 19.3738 50.2988 12.8841 -31.8355 -51.961 -7.48939 -9.80107 0.285496 -0.00252885 4.3037 -91.8836 0.00394553 0.00895438 -158.504 19.6183 -35.6431 -50.8638 -10.6403 -13.2751 23.0214 3.98021 26.8694 -91.8836 0.00394682 0.00895635 
5.12583 77.0209 24.8807 -87.8654 -45.5598 -178.83 -18.829 -3.14316 -0.391323 13.4153 -0.723212 -1.85141 2.11389 -0.783403 -1.82231 -9.78261 30.0576 97.1744 -46.4213 -35.2273 38.2855 -122.831 -8.58348 1.18683 -39.7442 -62.0097 -37.5252 179.702 29.2071 81.6745 -71.5098 -6.47771 55.0168 -116.189 -8.44946 1.25929 -86.8002 -74.1646 -69.6938 -25.2606 2.49357 7.0808 12.0404 17.4325 17.693 51.2965 12.4394 -30.364 -46.7212 -8.32627 -9.97208 -1.23472 -0.514272 8.10023 -91.8836 0.00394553 0.00895438 -163.156 20.6954 -34.525 -48.6805 -9.67095 -13.2308 14.1524 3.08192 27.6265 -91.8836 0.00394682 0.00895635 
5.19047 76.7914 29.6343 -88.2189 -52.4192 -177.907 -17.5075 -3.09133 0.248947 13.6315 -0.808591 -2.59676 2.32763 -0.893868 -2.56667 -9.62271 29.8822 96.9638 -52.5227 -32.7239 36.677 -122.856 -8.58833 1.1817 -42.0711 -61.2546 -39.8173 178.459 30.8371 83.6569 -65.4801 -0.696876 52.7584 -121.559 -8.56125 1.19695 -81.0139 -75.4964 -64.7175 -25.269 1.98885 5.75754 11.1325 13.1468 14.0435 52.368 11.3183 -27.0543 -45.7054 -8.89486 -10.5776 -2.43298 -4.88119 15.3943 -91.8836 0.00394553 0.00895438 -169.433 21.2058 -32.1574 -49.0312 -6.3633 -13.3747 8.70956 1.50014 27.6132 -91.8836 0.00394682 0.00895635 
